<svg xmlns="http://www.w3.org/2000/svg" xmlns:xlink="http://www.w3.org/1999/xlink" width="80" height="80" viewBox="0 0 80 80"><defs><path id="f0t6a" d="M1438.486 919.53a2.489 2.489 0 0 1-2.63.89l-14.68-3.95-3.906 14.674a2.494 2.494 0 0 1-2.415 1.856 2.5 2.5 0 0 1-2.165-1.25l-13.685-23.69-13.686 23.69a2.5 2.5 0 0 1-2.165 1.25c-.105 0-.215-.005-.33-.025-1-.13-1.825-.855-2.085-1.836l-3.905-14.674-14.68 3.95c-.975.27-2.01-.09-2.63-.89-.62-.8-.69-1.896-.185-2.775l14.51-25.186a27.273 27.273 0 0 1-2.345-11.065c0-15.164 12.335-27.5 27.5-27.5 15.166 0 27.501 12.336 27.501 27.5 0 3.935-.845 7.676-2.345 11.07l14.51 25.19a2.5 2.5 0 0 1-.184 2.77zm-44.906-12.07c-6.905-1.39-12.86-5.38-16.846-10.89l-10.05 17.445 11.27-3.03a2.55 2.55 0 0 1 1.9.25c.575.334.995.885 1.165 1.524l2.995 11.256zm5.425-4.46c12.405 0 22.5-10.095 22.5-22.5 0-12.406-10.095-22.5-22.5-22.5-12.406 0-22.5 10.094-22.5 22.5 0 12.405 10.094 22.5 22.5 22.5zm32.32 11.02l-10.05-17.446c-3.985 5.51-9.945 9.505-16.845 10.89l9.565 16.556 2.995-11.256a2.49 2.49 0 0 1 1.165-1.524c.575-.33 1.26-.42 1.9-.25zm-17.87-37.41l-4.75 5.95.52 7.774a2.495 2.495 0 0 1-3.475 2.466l-6.745-2.865-6.745 2.865a2.494 2.494 0 0 1-2.425-.26 2.51 2.51 0 0 1-1.05-2.206l.52-7.775-4.756-5.95a2.5 2.5 0 0 1 1.325-3.98l7.096-1.854 3.89-6.55c.895-1.52 3.395-1.52 4.295 0l3.89 6.55 7.09 1.854a2.502 2.502 0 0 1 1.32 3.98zm-6.305-.116l-4.365-1.144a2.512 2.512 0 0 1-1.515-1.14l-2.265-3.815-2.265 3.815c-.335.56-.88.974-1.515 1.14l-4.365 1.144 2.955 3.705c.39.49.585 1.106.54 1.726l-.31 4.685 3.98-1.695a2.497 2.497 0 0 1 1.96 0l3.985 1.695-.315-4.685c-.045-.62.15-1.235.54-1.726z"/></defs><g><g transform="translate(-1359 -853)"><use fill="#4274b0" xlink:href="#f0t6a"/></g></g></svg>