<svg xmlns="http://www.w3.org/2000/svg" xmlns:xlink="http://www.w3.org/1999/xlink" width="80" height="80" viewBox="0 0 80 80"><defs><path id="g0lqa" d="M854 930.146c0 1.712-1.143 2.854-2.857 2.854h-74.286c-1.714 0-2.857-1.142-2.857-2.854v-74.183c0-1.427.571-2.283 1.714-2.854 1.143-.285 2.286 0 3.143.571l74 73.898c.571.571 1.143 1.427 1.143 2.568zm-74.286-3.139h64.57l-4.57-4.565c-.287 0-.287.286-.287.286l-1.714 1.712c-.571.57-1.429.855-2 .855s-1.429-.284-2-.855c-1.143-1.141-1.143-2.854 0-3.995l1.714-1.712c0-.285.286-.285.286-.285l-4.571-4.565-.857.856c-.572.57-1.43.855-2 .855-.572 0-1.43-.285-2-.855-1.143-1.142-1.143-2.854 0-3.995l.857-.856-4.572-4.565-.857.856c-.571.57-1.428.856-2 .856-.571 0-1.428-.286-2-.856-1.143-1.141-1.143-2.853 0-3.995l.857-.855-4.571-4.565c-.286 0-.286.285-.286.285L812 898.761c-.572.57-1.429.855-2 .855s-1.429-.284-2-.855c-1.143-1.141-1.143-2.854 0-3.995l1.714-1.712c0-.285.286-.285.286-.285l-4.571-4.565-.858.856c-.57.57-1.142.856-2 .856-.57 0-1.428-.285-2-.856-1.142-1.141-1.142-2.854 0-3.995l.858-.856-4.572-4.565-.857.856c-.571.57-1.142.856-2 .856-.57 0-1.428-.285-2-.856-1.142-1.141-1.142-2.853 0-3.994l.858-.856-4.572-4.565c-.285 0-.285.285-.285.285l-1.714 1.712c-.572.57-1.43.856-2 .856-.572 0-1.429-.286-2-.856-1.143-1.141-1.143-2.853 0-3.994L784 867.66c0-.285.286-.285.286-.285l-4.572-4.566zm42-8.273c-.285 1.14-1.428 1.711-2.571 1.711h-30c-1.715 0-2.857-1.141-2.857-2.853V888.49c-.572-1.14-.286-2.283.571-3.138 1.143-1.141 2.857-1.141 4 0l30.286 30.244c.857.856 1.142 1.997.571 3.139zM792 914.739h20.285L792 894.48z"/></defs><g><g transform="translate(-774 -853)"><use fill="#4274b0" xlink:href="#g0lqa"/></g></g></svg>