<svg xmlns="http://www.w3.org/2000/svg" xmlns:xlink="http://www.w3.org/1999/xlink" width="80" height="80" viewBox="0 0 80 80"><defs><path id="p4x4a" d="M1131.518 902.531a7.002 7.002 0 0 1 1.794 4.687c0 3.238-2.199 5.97-5.181 6.785.318.802.494 1.676.494 2.59 0 3.237-2.2 5.97-5.182 6.785.319.802.494 1.676.494 2.59a7.04 7.04 0 0 1-7.03 7.032h-14.063c-.192 0-.383-.024-.569-.07l-16.444-4.112a7.04 7.04 0 0 1-6.425 4.182h-9.687a2.344 2.344 0 0 1-2.344-2.344v-2.344h-7.031a2.344 2.344 0 0 1-2.344-2.344v-32.812a2.344 2.344 0 0 1 2.344-2.344h23.434c1.675-.463 10.084-2.838 14.358-4.98 3.798-1.904 7.051-10.452 7.051-16.114a2.344 2.344 0 0 1 2.344-2.343c3.2 0 6.233 1.39 8.322 3.813a11.017 11.017 0 0 1 2.55 8.824c-.468 3.147-1.27 7.302-2.564 10.8h10.442a7.04 7.04 0 0 1 7.031 7.031c0 1.8-.679 3.443-1.794 4.688zm-64.143-7.032h-4.688v28.125h4.688zm14.375 0h-9.688v32.813h7.344a2.346 2.346 0 0 0 2.344-2.344zm28.125 7.032a2.344 2.344 0 0 1 2.344-2.344h14.062a2.346 2.346 0 0 0 2.344-2.344 2.347 2.347 0 0 0-2.344-2.344h-14.062a2.344 2.344 0 0 1-2.097-3.392c1.143-2.284 2.535-5.34 3.646-12.787a6.33 6.33 0 0 0-1.466-5.072 6.298 6.298 0 0 0-2.607-1.803c-.78 6.343-4.075 14.879-9.458 17.577-3.93 1.97-10.637 4.004-13.8 4.911v29.206l16.695 4.173h13.774a2.346 2.346 0 0 0 2.344-2.344 2.346 2.346 0 0 0-2.344-2.344h-4.687a2.344 2.344 0 0 1 0-4.687h9.375a2.346 2.346 0 0 0 2.343-2.344 2.346 2.346 0 0 0-2.343-2.343h-9.375a2.344 2.344 0 0 1 0-4.688h14.062a2.347 2.347 0 0 0 2.344-2.344 2.347 2.347 0 0 0-2.344-2.343h-14.062a2.344 2.344 0 0 1-2.344-2.344zm2.344-47.188v5a2.344 2.344 0 1 1-4.688 0v-5a2.344 2.344 0 0 1 4.688 0zm-15.602 12.836c-.915.915-2.4.915-3.315 0l-3.314-3.315a2.344 2.344 0 0 1 3.314-3.314l3.315 3.314a2.343 2.343 0 0 1 0 3.315zm-5.492 13.258a2.344 2.344 0 0 1-2.344 2.344h-4.687a2.344 2.344 0 1 1 0-4.688h4.687a2.343 2.343 0 0 1 2.344 2.344zm46.875 0a2.344 2.344 0 0 1-2.344 2.344h-4.687a2.344 2.344 0 0 1 0-4.688h4.687a2.343 2.343 0 0 1 2.344 2.344zm-8.238-16.573l-3.314 3.315a2.344 2.344 0 0 1-3.315-3.315l3.315-3.314a2.344 2.344 0 1 1 3.314 3.314z"/></defs><g><g transform="translate(-1058 -853)"><use fill="#4274b0" xlink:href="#p4x4a"/></g></g></svg>