<svg xmlns="http://www.w3.org/2000/svg" xmlns:xlink="http://www.w3.org/1999/xlink" width="80" height="80" viewBox="0 0 80 80"><defs><path id="fcjpa" d="M558.92 897.536l-12.3 12.386v20.734a2.344 2.344 0 0 1-2.344 2.344h-51.558a2.344 2.344 0 0 1-2.344-2.344v-7.188h-7.03a2.344 2.344 0 0 1-2.344-2.344v-65.78a2.344 2.344 0 0 1 2.343-2.344h51.558a2.344 2.344 0 0 1 2.344 2.343v8.646c.24.184.47.384.686.601l6.629 6.63a6.984 6.984 0 0 1 2.059 4.971v13.776l2.353-2.37c2.747-2.746 7.207-2.746 9.948-.005a7.04 7.04 0 0 1 0 9.944zm-26.362-20.943h9.374v-.402c0-.626-.244-1.214-.686-1.657l-6.629-6.63a2.328 2.328 0 0 0-1.657-.686h-.402zm-39.84-14.062h39.84v-4.844h-46.871v61.094h4.687v-53.906a2.344 2.344 0 0 1 2.344-2.344zm49.214 65.781v-13.67l-6.05 6.09c-.309.312-.699.53-1.126.63l-8.692 2.044c-1.688.396-3.221-1.124-2.817-2.824l2.064-8.673c.1-.42.314-.803.617-1.11l16.004-16.113V881.28h-11.718a2.344 2.344 0 0 1-2.343-2.344v-11.719h-32.81v61.094zm-9.37-14.203a7.052 7.052 0 0 0-1.948-1.375l-.896.901-1.032 4.34 4.344-1.022.902-.908a7.054 7.054 0 0 0-1.37-1.936zm18.09-14.899l-3.315-3.314-13.305 13.396a11.703 11.703 0 0 1 3.321 3.307zm4.954-8.303a2.346 2.346 0 0 0-3.314 0l-1.652 1.663 3.315 3.314 1.646-1.657c.919-.92.919-2.406.005-3.32zm-32.422-16.658a2.344 2.344 0 0 1-2.344 2.344h-18.748a2.344 2.344 0 0 1 0-4.687h18.748a2.344 2.344 0 0 1 2.344 2.343zm0 9.375a2.344 2.344 0 0 1-2.344 2.344h-18.748a2.344 2.344 0 0 1 0-4.687h18.748a2.344 2.344 0 0 1 2.344 2.343zM537.245 893a2.344 2.344 0 0 1-2.344 2.343h-32.81a2.344 2.344 0 0 1 0-4.687h32.81a2.344 2.344 0 0 1 2.344 2.344zm-14.748 15.72l-14.061 14.062c-.915.916-2.4.916-3.314 0l-4.687-4.688a2.344 2.344 0 0 1 3.314-3.314l3.03 3.03 12.404-12.405a2.343 2.343 0 1 1 3.314 3.315z"/></defs><g><g transform="translate(-481 -853)"><use fill="#4274b0" xlink:href="#fcjpa"/></g></g></svg>