<svg xmlns="http://www.w3.org/2000/svg" xmlns:xlink="http://www.w3.org/1999/xlink" width="109" height="109" viewBox="0 0 109 109"><defs><path id="7k8oa" d="M869 2590.337c0 1.7-.662 3.3-1.865 4.502l-19.297 19.299a6.347 6.347 0 0 1-4.501 1.862c-1.63 0-3.26-.621-4.501-1.862l-7.675-7.675a2.13 2.13 0 0 1 3.011-3.011l7.674 7.675a2.11 2.11 0 0 0 2.981 0l19.297-19.3c.398-.397.618-.927.618-1.49s-.22-1.092-.618-1.49l-3.804-3.805-2.035 2.035c-.416.416-.961.624-1.506.624s-1.09-.208-1.505-.624a2.13 2.13 0 0 1 0-3.01l2.035-2.036-5.284-5.285-6.082 6.083c-.416.415-.96.623-1.505.623a2.13 2.13 0 0 1-1.505-3.634l6.081-6.083-5.284-5.285-2.036 2.036c-.415.416-.96.623-1.505.623a2.13 2.13 0 0 1-1.505-3.635l2.035-2.035-5.482-5.483-22.278 22.28 9.153 9.154a2.13 2.13 0 0 1-3.011 3.011l-9.153-9.154-11.21 11.211a2.133 2.133 0 0 1-.617.43l-29.904 13.72a2.126 2.126 0 0 1-2.393-.43 2.13 2.13 0 0 1-.43-2.394l13.719-29.906c.106-.23.25-.439.43-.618l11.209-11.21-28.888-28.89a6.324 6.324 0 0 1-1.864-4.502c0-1.701.662-3.3 1.864-4.502l19.298-19.3a6.373 6.373 0 0 1 9.002 0l5.297 5.299h.001l8.298 8.3 15.292 15.292 23.251-23.254a7.802 7.802 0 0 1 5.552-2.3c2.097 0 4.069.817 5.552 2.3l8.093 8.094a7.8 7.8 0 0 1 2.3 5.552c0 2.097-.817 4.069-2.3 5.552l-23.252 23.254 15.281 15.284h.001l.001.001 8.293 8.294h.001l.001.002 5.31 5.31a6.324 6.324 0 0 1 1.864 4.501zm-29.901-66.617l13.175 13.176 6.215-6.216a3.597 3.597 0 0 0 0-5.082l-8.093-8.094a3.57 3.57 0 0 0-2.541-1.052 3.57 3.57 0 0 0-2.541 1.052zm-45.336 39.318l22.277-22.28-5.491-5.492-2.035 2.036c-.416.416-.96.623-1.506.623a2.13 2.13 0 0 1-1.505-3.635l2.035-2.035-5.284-5.285-6.081 6.083c-.416.415-.961.623-1.506.623s-1.09-.207-1.505-.623a2.13 2.13 0 0 1 0-3.011l6.081-6.082-5.287-5.288-2.035 2.035a2.125 2.125 0 0 1-3.011 0 2.13 2.13 0 0 1 0-3.011l2.035-2.036-3.792-3.792a2.11 2.11 0 0 0-2.98 0l-19.298 19.3a2.092 2.092 0 0 0-.617 1.49c0 .562.219 1.092.617 1.49zm-15.751 38.39l-3.44-3.44-2.915 6.356zm15.552-7.134l-11.857-11.858-5.241 11.424 5.674 5.675zm55.698-54.387l-3.087-3.087-17.546 17.547a2.124 2.124 0 0 1-3.01 0 2.13 2.13 0 0 1 0-3.011l17.545-17.548-7.076-7.077-52.03 52.034 13.175 13.176zm-20.009 59.508c0 .56-.228 1.11-.624 1.505a2.145 2.145 0 0 1-1.505.624c-.56 0-1.109-.228-1.505-.624a2.145 2.145 0 0 1-.624-1.505c0-.563.228-1.11.624-1.508a2.139 2.139 0 0 1 1.505-.621c.56 0 1.11.225 1.505.621.396.398.624.945.624 1.508zm-5.693-40.86c0 .56-.227 1.109-.623 1.505a2.145 2.145 0 0 1-1.506.624 2.14 2.14 0 0 1-1.504-.624 2.137 2.137 0 0 1-.624-1.505 2.135 2.135 0 0 1 2.128-2.13c.56 0 1.11.229 1.506.625.396.395.623.945.623 1.505z"/></defs><g><g transform="translate(-760 -2507)"><use fill="#4274b0" xlink:href="#7k8oa"/></g></g></svg>