<svg xmlns="http://www.w3.org/2000/svg" xmlns:xlink="http://www.w3.org/1999/xlink" width="109" height="109" viewBox="0 0 109 109"><defs><path id="qmzba" d="M1380.777 2590.848a2.1 2.1 0 0 1-.164.814 2.103 2.103 0 0 1-.784.956 2.132 2.132 0 0 1-.766.317 2.072 2.072 0 0 1-1.23-.121 2.188 2.188 0 0 1-.69-.46 2.031 2.031 0 0 1-.264-.324 1.973 1.973 0 0 1-.196-.368 2.109 2.109 0 0 1-.121-1.229 2.078 2.078 0 0 1 .317-.766 2.034 2.034 0 0 1 .587-.588 2.158 2.158 0 0 1 .767-.317 2.088 2.088 0 0 1 1.228.121 2.103 2.103 0 0 1 .956.784 2.153 2.153 0 0 1 .36 1.181zm55.721 11.831c-.056.026-.114.05-.172.07l-32.783 11.74a16.966 16.966 0 0 1-7.053 1.51 19.11 19.11 0 0 1-6.943-1.33c-6.652-2.992-10.346-5.122-12.79-6.532-3.178-1.832-4.316-2.488-7.777-2.79v.612a2.13 2.13 0 0 1-2.128 2.13h-5.936v1.838a2.13 2.13 0 0 1-2.13 2.13h-12.657a2.13 2.13 0 0 1-2.129-2.13v-26.844c0-1.176.953-2.13 2.129-2.13h19.705c2.815-4.16 7.735-7.975 13.297-7.975 7.958 0 12.209 4.489 13.566 6.243l16.303 5.534.057.02c3.024 1.123 5.163 3.333 6.02 5.93l14.832-4.102c5.439-1.858 10.034-.163 11.993 4.423.01.02.018.042.026.063 2.372 6.085-2.297 10.149-5.43 11.59zm-79.84-17.467h-8.4v22.585h8.4zm8.065 0h-3.807v18.618h3.807zm73.25 7.455c-1.349-3.108-4.38-2.823-6.688-2.035l-15.984 4.43a8.35 8.35 0 0 1-4.124 5.561 8.358 8.358 0 0 1-6.451.724l-19.107-6.055a2.13 2.13 0 0 1 1.286-4.06l19.074 6.045a4.121 4.121 0 0 0 3.126-.374 4.12 4.12 0 0 0 1.97-2.49c.657-2.307-.771-4.622-3.474-5.636l-16.92-5.743c-.469-.16-.868-.478-1.128-.902-.12-.19-3.187-4.896-10.422-4.896-4.22 0-8.132 3.386-10.15 6.694v17.149c4.74.392 6.42 1.36 9.903 3.369 2.506 1.445 5.935 3.423 12.36 6.315 1.7.66 6.039 1.917 10.603-.181a2.979 2.979 0 0 1 .181-.074l32.769-11.734c.944-.45 4.573-2.458 3.177-6.107zm-17.492-57.254a2.094 2.094 0 0 1-.36 1.181 2.034 2.034 0 0 1-.588.588 2.124 2.124 0 0 1-2.363 0 2.041 2.041 0 0 1-.587-.588 2.09 2.09 0 0 1-.196-.368 2.097 2.097 0 0 1 .196-1.995 2.054 2.054 0 0 1 .587-.587 2.103 2.103 0 0 1 .767-.317 2.098 2.098 0 0 1 1.23.12 2.157 2.157 0 0 1 .69.46c.098.099.187.207.264.324.079.115.143.239.196.366a2.06 2.06 0 0 1 .164.816zm32.519-19.078v26.845a2.13 2.13 0 0 1-2.129 2.129h-19.705c-2.815 4.159-7.735 7.975-13.297 7.975-.605 0-1.19-.026-1.752-.075l-21.643 21.647c-.845.844-2.363.648-3.011 0l-40.51-40.516c-.915-.915-.767-2.245 0-3.012l23.706-23.71a2.13 2.13 0 0 1 3.011 0l7.221 7.222 8.567-3.068c6.061-2.747 11.736-1.07 13.901-.218.032.012.063.025.094.04 6.652 2.99 10.346 5.12 12.79 6.53 3.178 1.833 4.316 2.489 7.776 2.791v-.612a2.13 2.13 0 0 1 2.13-2.13h5.935v-1.838c0-1.176.953-2.13 2.13-2.13h12.657c1.176 0 2.129.954 2.129 2.13zm-81.688.653a9.183 9.183 0 0 0 4.853 1.369c1.742 0 3.41-.477 4.852-1.37l-4.852-4.852zm-9.622 15.846c0-1.743-.477-3.41-1.37-4.853l-4.851 4.853 4.852 4.853a9.193 9.193 0 0 0 1.37-4.853zm36.13 32.652a9.268 9.268 0 0 0-9.703 0l4.851 4.852zm7.928-7.929a13.597 13.597 0 0 1-2.255-10.792l-7.188-2.44a12.086 12.086 0 0 1-3.157 5.494 12.095 12.095 0 0 1-8.582 3.549 12.096 12.096 0 0 1-8.58-3.55c-4.732-4.731-4.732-12.431 0-17.164a12.134 12.134 0 0 1 6.368-3.351 8.345 8.345 0 0 1 3.469-3.665 8.398 8.398 0 0 1 2.866-.977l-4.605-4.606a13.4 13.4 0 0 1-7.92 2.56 13.4 13.4 0 0 1-7.919-2.56l-4.857 4.858a13.402 13.402 0 0 1 2.56 7.921c0 2.887-.898 5.634-2.56 7.92l21.662 21.665c4.704-3.413 11.132-3.413 15.837 0zm-24.184-23.605a7.876 7.876 0 0 0-2.568 1.713c-3.071 3.073-3.071 8.07 0 11.143 3.072 3.072 8.07 3.071 11.14 0a7.843 7.843 0 0 0 2.12-3.856l-4.256-1.446-.057-.02c-3.631-1.347-5.986-4.263-6.379-7.534zm29.646 18.142a16.583 16.583 0 0 1-3.754-2.033 9.312 9.312 0 0 0 1.36 4.427zm16.81-26.912c-4.742-.392-6.42-1.36-9.904-3.37-2.506-1.444-5.935-3.423-12.361-6.314-1.7-.661-6.038-1.917-10.602.181a1.951 1.951 0 0 1-.108.046c-.023.009-.05.02-.074.028l-6.75 2.417 7.854 7.855.004.004.132.132 15.17 4.808a2.13 2.13 0 0 1-1.287 4.06l-19.073-6.045a4.119 4.119 0 0 0-3.126.374 4.118 4.118 0 0 0-1.969 2.481l-.001.006-.001.004c-.655 2.308.773 4.621 3.474 5.634l16.927 5.746c.518.177.925.533 1.173.976.027.04.213.283.256.346.815 1.035 3.288 3.649 7.886 4.316l.008.002c.692.1 1.432.156 2.221.156 4.22 0 8.132-3.386 10.15-6.694zm8.064-2.75h-3.807v18.618h3.807zm12.658-3.968h-8.4v22.586h8.4z"/></defs><g><g transform="translate(-1344 -2507)"><use fill="#4274b0" xlink:href="#qmzba"/></g></g></svg>