<svg xmlns="http://www.w3.org/2000/svg" xmlns:xlink="http://www.w3.org/1999/xlink" width="108" height="109" viewBox="0 0 108 109"><defs><path id="5nu8a" d="M565.931 2587.197c2.306 2.3 3.516 5.038 3.516 7.891 0 2.83-1.188 5.59-3.447 7.96a90.02 90.02 0 0 1-2.968 2.967c-1.438 1.404-2.808 2.715-3.995 4.164-.023.046-.068.07-.091.115-3.47 3.796-7.899 5.706-13.172 5.706-.456 0-.959-.023-1.438-.046-7.83-.507-14.838-3.474-20.088-5.982-13.743-6.695-25.773-16.195-35.771-28.227-8.241-9.984-13.765-19.301-17.464-29.354-1.506-4.095-3.47-10.353-2.921-17.07.365-4.164 2.031-7.753 4.953-10.698l7.761-7.89.046-.047c2.283-2.208 4.977-3.381 7.762-3.381 2.785 0 5.433 1.173 7.647 3.381 1.484 1.38 2.922 2.853 4.291 4.28a96.637 96.637 0 0 0 2.123 2.185l6.232 6.28c4.794 4.832 4.794 11.089 0 15.92-.639.644-1.278 1.311-1.917 1.955-1.69 1.726-3.424 3.52-5.296 5.245 1.392 3.106 3.31 6.166 6.163 9.8 5.89 7.294 12.03 12.93 18.788 17.255.662.414 1.438.805 2.26 1.219.57.3 1.164.598 1.757.92l7.214-7.246c2.305-2.324 5-3.543 7.807-3.543 2.83 0 5.501 1.242 7.716 3.565zm-4.383 4.348l-12.578-12.675-.046-.047c-.707-.782-1.871-1.679-3.287-1.679-1.438 0-2.67.943-3.447 1.726l-7.807 7.867c-.388.39-1.575 1.587-3.47 1.587-.753 0-1.483-.183-2.26-.574-.09-.046-.182-.116-.274-.162-.661-.414-1.438-.805-2.26-1.22-.913-.459-1.871-.942-2.807-1.54-7.328-4.67-13.97-10.767-20.271-18.589l-.023-.023c-3.47-4.44-5.753-8.166-7.373-12.123l-.069-.207c-.41-1.312-.776-3.244 1.187-5.222.023-.046.069-.07.114-.116 1.986-1.794 3.812-3.635 5.73-5.612.662-.645 1.301-1.312 1.963-1.98 2.42-2.437 2.42-4.692 0-7.13l-6.232-6.281c-.73-.76-1.46-1.495-2.168-2.231-1.393-1.45-2.717-2.807-4.11-4.118l-.068-.07c-.73-.736-1.895-1.61-3.333-1.61-1.164 0-2.351.576-3.47 1.634l-7.784 7.844c-1.895 1.91-2.922 4.141-3.15 6.833-.342 4.21.434 8.672 2.557 14.4 3.447 9.387 8.651 18.129 16.436 27.584 9.427 11.341 20.773 20.29 33.693 26.594 4.726 2.277 11.026 4.946 17.806 5.384.342.022.708.022 1.05.022 3.561 0 6.278-1.173 8.583-3.658 1.415-1.679 2.922-3.174 4.406-4.6.982-.966 1.895-1.84 2.785-2.807-.023.023-.023 0 0 0 2.328-2.44 2.328-4.854-.023-7.2zm-37.666-62.205a3.1 3.1 0 0 1 3.562-2.531c7.236 1.242 13.833 4.693 19.06 9.961 5.228 5.268 8.652 11.917 9.885 19.209.274 1.703-.845 3.313-2.534 3.589-.182.023-.342.046-.525.046a3.07 3.07 0 0 1-3.036-2.577 29.404 29.404 0 0 0-8.172-15.873c-4.337-4.371-9.77-7.224-15.751-8.236-1.69-.276-2.785-1.91-2.489-3.588zm49.56 29.285c-.183.023-.343.046-.526.046a3.07 3.07 0 0 1-3.036-2.577c-1.803-10.72-6.825-20.497-14.541-28.273-7.716-7.752-17.418-12.837-28.055-14.654a3.118 3.118 0 0 1-2.534-3.589c.297-1.68 1.872-2.83 3.538-2.53 11.916 2.047 22.76 7.706 31.388 16.402 8.63 8.696 14.245 19.623 16.276 31.632.297 1.68-.844 3.29-2.51 3.543z"/></defs><g><g transform="translate(-468 -2507)"><use fill="#4274b0" xlink:href="#5nu8a"/></g></g></svg>