<svg xmlns="http://www.w3.org/2000/svg" xmlns:xlink="http://www.w3.org/1999/xlink" width="14" height="15" viewBox="0 0 14 15"><defs><path id="s4j3a" d="M1147.7 446.314l-1.027 1.1c-.364.39-.88.584-1.519.584-.619 0-1.352-.183-2.17-.55-1.6-.716-3.36-2.053-4.957-3.764-1.597-1.711-2.845-3.597-3.514-5.31-.695-1.782-.684-3.186.033-3.953l1.026-1.1c.24-.257.571-.377.908-.33.337.048.627.256.797.572l1.99 3.705a1.225 1.225 0 0 1-.172 1.4l-.681.73a.563.563 0 0 0-.037.714 20.686 20.686 0 0 0 2.984 3.197.474.474 0 0 0 .667-.04l.681-.73c.346-.37.883-.445 1.307-.184l3.458 2.133c.294.181.489.492.533.853.045.362-.067.716-.308.973zm-4.67-3.43l-.186.2 4.595 2.81a.705.705 0 0 0 .118-.489.675.675 0 0 0-.31-.496l-3.458-2.133a.6.6 0 0 0-.758.108zm-6.694-9.416a.595.595 0 0 0-.37.132l2.636 4.907.172-.183a.711.711 0 0 0 .1-.813l-1.99-3.706a.626.626 0 0 0-.548-.337zm10.777 12.786l-4.602-2.813-.162.172a.906.906 0 0 1-1.272.075 21.134 21.134 0 0 1-3.054-3.272 1.074 1.074 0 0 1 .07-1.362l.177-.19-2.641-4.915-.762.816c-.57.61-.545 1.857.065 3.422.647 1.655 1.86 3.486 3.416 5.153 1.557 1.667 3.265 2.967 4.81 3.66 1.46.654 2.625.68 3.194.07z"/></defs><g><g transform="translate(-1134 -433)"><use fill="#697887" xlink:href="#s4j3a"/></g></g></svg>