<svg xmlns="http://www.w3.org/2000/svg" xmlns:xlink="http://www.w3.org/1999/xlink" width="19" height="20" viewBox="0 0 19 20"><defs><path id="tjy0a" d="M852.378 3795.753a.552.552 0 0 1-.42.666.566.566 0 0 1-.692-.404c-.815-3.235.272-6.633 2.835-8.867 1.863-1.625 4.277-2.455 6.79-2.333 2.028.099 3.924.8 5.465 2.014l-.09-2.258a.559.559 0 0 1 .552-.572.565.565 0 0 1 .594.531l.14 3.602v.065a.56.56 0 0 1-.551.551l-3.785.135h-.021a.566.566 0 0 1-.573-.53.558.558 0 0 1 .551-.572l2.466-.09c-3.11-2.439-7.702-2.398-10.77.273-2.253 1.96-3.204 4.947-2.491 7.789zm14.521 5.097a9.576 9.576 0 0 1-6.79 2.332 9.575 9.575 0 0 1-5.444-1.997l.204 2.21a.558.558 0 0 1-.518.6c-.017.004-.034.004-.05.004a.564.564 0 0 1-.57-.502l-.339-3.631a.557.557 0 0 1 .518-.601l3.772-.327a.564.564 0 0 1 .624.499.557.557 0 0 1-.518.6l-2.495.216c1.52 1.217 3.403 1.834 5.292 1.834a8.43 8.43 0 0 0 5.546-2.054c2.253-1.96 3.208-4.946 2.49-7.789a.55.55 0 0 1 .421-.665.575.575 0 0 1 .692.404c.814 3.239-.272 6.633-2.835 8.867z"/></defs><g><g transform="translate(-851 -3784)"><use fill="#fff" xlink:href="#tjy0a"/></g></g></svg>