<svg xmlns="http://www.w3.org/2000/svg" xmlns:xlink="http://www.w3.org/1999/xlink" width="51" height="53" viewBox="0 0 51 53"><defs><path id="j1z2a" d="M964.942 1482.013a1 1 0 0 1-.998 1.001h-5.989v6.003a1 1 0 0 1-.998 1.001 1 1 0 0 1-.998-1v-6.004h-5.988a1 1 0 0 1 0-2.002h5.988v-6.003a1 1 0 0 1 .998-1 1 1 0 0 1 .998 1v6.003h5.989a1 1 0 0 1 .998 1zm21.65 31.707a.995.995 0 0 1-1.41-.028l-14.867-15.501a20.83 20.83 0 0 1-13.358 4.835c-11.557 0-20.959-9.426-20.959-21.013 0-11.587 9.402-21.013 20.96-21.013 11.557 0 20.959 9.426 20.959 21.013a20.975 20.975 0 0 1-6.126 14.83l14.83 15.462c.38.398.369 1.032-.028 1.415zm-29.635-12.695c10.457 0 18.963-8.528 18.963-19.012 0-10.483-8.506-19.011-18.963-19.011-10.456 0-18.963 8.528-18.963 19.01 0 10.485 8.507 19.013 18.963 19.013z"/></defs><g><g transform="translate(-936 -1461)"><use fill="#4274b0" xlink:href="#j1z2a"/></g></g></svg>