<svg xmlns="http://www.w3.org/2000/svg" xmlns:xlink="http://www.w3.org/1999/xlink" width="15" height="15" viewBox="0 0 15 15"><defs><path id="tsjla" d="M1146.543 364.045l.008.006-.25.209c-.024.02-.052.038-.077.059a7.774 7.774 0 0 1-.352.268c-.05.036-.099.072-.15.106a7.46 7.46 0 0 1-1.044.597l-.063.029a7.432 7.432 0 0 1-2.433.648l-.076.006c-.2.016-.402.027-.606.027-.206 0-.41-.01-.611-.028l-.074-.005a7.36 7.36 0 0 1-.599-.08l-.05-.01a7.444 7.444 0 0 1-1.814-.573l-.039-.018a7.236 7.236 0 0 1-.613-.325 7.62 7.62 0 0 1-.448-.285l-.133-.096c-.136-.098-.27-.2-.4-.307-.015-.013-.033-.024-.049-.037l-.243-.206.007-.006A7.48 7.48 0 0 1 1134 358.5c0-4.135 3.365-7.5 7.5-7.5s7.5 3.365 7.5 7.5a7.48 7.48 0 0 1-2.456 5.546zm-9.686-.374c.068-.048.136-.092.205-.13l2.156-1.175a.609.609 0 0 0 .317-.535v-.79a5.119 5.119 0 0 1-.843-1.741.993.993 0 0 1-.366-.77v-.966c0-.237.087-.466.242-.647v-1.273c-.014-.141-.064-.94.514-1.599.502-.573 1.316-.864 2.418-.864s1.916.29 2.418.865c.578.658.528 1.457.514 1.598v1.274c.155.18.242.409.242.646v.967a.99.99 0 0 1-.569.896 5.558 5.558 0 0 1-.882 1.62v.807c0 .232.13.44.336.544l2.31 1.154c.082.041.163.091.243.146a6.937 6.937 0 0 0 2.342-5.199 6.962 6.962 0 0 0-6.954-6.954 6.962 6.962 0 0 0-6.955 6.954c0 2.052.894 3.898 2.312 5.172zm8.811.391l-.043-.022-2.31-1.154a1.148 1.148 0 0 1-.637-1.032v-1.01l.067-.076c.06-.068.13-.158.201-.259.291-.41.52-.873.681-1.372l.044-.135.135-.042a.456.456 0 0 0 .322-.43v-.966a.444.444 0 0 0-.152-.334l-.09-.08.003-1.556c0-.006.076-.674-.386-1.195-.395-.446-1.069-.672-2.003-.672-.938 0-1.614.228-2.008.677-.462.527-.382 1.183-.38 1.19l.002.035v1.52l-.09.08a.446.446 0 0 0-.152.334v.967c0 .153.078.295.21.38l.092.06.025.108c.223.971.813 1.689.819 1.695l.062.076v.982c0 .422-.23.81-.6 1.013l-2.157 1.176-.026.015.036.029a6.878 6.878 0 0 0 .483.33c.135.084.271.164.41.24l.06.03a7.1 7.1 0 0 0 .465.222l.004.002c.167.071.336.136.508.195l.032.01c.346.116.7.205 1.06.265l.024.004c.17.028.342.049.515.064l.09.007a6.74 6.74 0 0 0 1.118-.006c.17-.016.342-.036.51-.063.006-.001.01-.003.016-.003.18-.03.359-.066.535-.11h.002c.175-.043.348-.093.52-.15l.034-.012c.326-.11.644-.246.951-.403l.089-.045a6.59 6.59 0 0 0 .393-.227c.046-.028.091-.058.137-.087.098-.064.195-.132.29-.2.03-.022.06-.042.09-.065z"/></defs><g><g transform="translate(-1134 -351)"><use fill="#697887" xlink:href="#tsjla"/></g></g></svg>